<?xml version="1.0" encoding="UTF-8"?>
<!DOCTYPE svg PUBLIC "-//W3C//DTD SVG 1.1//EN" "http://www.w3.org/Graphics/SVG/1.1/DTD/svg11.dtd">
<svg xmlns="http://www.w3.org/2000/svg" xml:space="preserve" width="6.82666in" height="6.82666in" style="shape-rendering:geometricPrecision; text-rendering:geometricPrecision; image-rendering:optimizeQuality; fill-rule:evenodd; clip-rule:evenodd"
viewBox="0 0 6.82666 6.82666"
 xmlns:xlink="http://www.w3.org/1999/xlink">
 <defs>
  <style type="text/css">
   <![CDATA[
    .fil0 {fill:#009688}
    .fil1 {fill:#FFFFFE}
    .fil2 {fill:#FFFFFE;fill-rule:nonzero}
   ]]>
  </style>
 </defs>
 <g id="Layer_x0020_1">
  <metadata id="CorelCorpID_0Corel-Layer"/>
  <rect class="fil0" width="6.82666" height="6.82666" rx="0.853335" ry="0.853335"/>
  <path class="fil1" d="M2.37982 0.945571c0.332512,0 0.633571,0.134791 0.851496,0.352717 0.217921,0.217917 0.352717,0.518976 0.352717,0.851496 0,0.332512 -0.134791,0.633571 -0.352717,0.851492 -0.217921,0.217925 -0.518976,0.352717 -0.851496,0.352717 -0.33252,0 -0.633575,-0.134795 -0.851496,-0.352713 -0.217917,-0.217921 -0.352713,-0.518984 -0.352713,-0.851496 0,-0.33252 0.134795,-0.633579 0.352717,-0.851496 0.217917,-0.217921 0.51898,-0.352717 0.851492,-0.352717zm-0.0516024 1.55348l0 -0.309646c-0.0966535,-0.0277598 -0.167567,-0.0693976 -0.212736,-0.125421 -0.0449213,-0.0560236 -0.0676339,-0.123909 -0.0676339,-0.203654 0,-0.0807559 0.0254882,-0.148638 0.0764646,-0.203654 0.0512283,-0.0550157 0.119114,-0.0865591 0.203906,-0.0951378l0 -0.073185 0.107 0 0 0.073185c0.0784843,0.00958661 0.140815,0.0360866 0.187252,0.080248 0.0461811,0.0441614 0.0757047,0.103217 0.0885787,0.177157l-0.187 0.0244764c-0.0113543,-0.0582953 -0.0408819,-0.0976614 -0.0888307,-0.118354l0 0.288949c0.118358,0.0320512 0.19911,0.073689 0.24176,0.124665 0.0429016,0.0509764 0.0643504,0.116339 0.0643504,0.196335 0,0.0890827 -0.027,0.164287 -0.080752,0.225358 -0.0540079,0.0613228 -0.129209,0.0986732 -0.225358,0.112551l0 0.138295 -0.107 0 0 -0.13476c-0.0852953,-0.0103465 -0.154697,-0.0421457 -0.207945,-0.0953937 -0.053248,-0.0529961 -0.087063,-0.128197 -0.101953,-0.225354l0.193055 -0.0206969c0.00782283,0.0393701 0.0227126,0.073437 0.0444173,0.101957 0.0214488,0.0285157 0.0456772,0.0492087 0.0724252,0.0620787zm0 -0.776256c-0.0292717,0.00984252 -0.0522362,0.026748 -0.0696496,0.0502205 -0.0171614,0.0237205 -0.0257402,0.0499646 -0.0257402,0.0784803 0,0.0259961 0.00782283,0.0504724 0.0234685,0.0726811 0.0158976,0.0224606 0.039874,0.0406299 0.0719213,0.0545079l0 -0.25589zm0.107 0.786602c0.0370984,-0.00681496 0.0671299,-0.0239724 0.0903465,-0.0512283 0.0232165,-0.0275079 0.0348228,-0.0595591 0.0348228,-0.0966535 0,-0.0330591 -0.00984252,-0.0613228 -0.0292717,-0.0852992 -0.0194331,-0.0239724 -0.0514803,-0.0423937 -0.0958976,-0.0550118l0 0.288193z"/>
  <path class="fil1" d="M4.5957 3.50103c0.33252,0 0.633575,0.134795 0.851496,0.352713 0.217917,0.217921 0.352713,0.518984 0.352713,0.851496 0,0.33252 -0.134795,0.633579 -0.352717,0.851496 -0.217917,0.217921 -0.51898,0.352717 -0.851492,0.352717 -0.332512,0 -0.633571,-0.134791 -0.851496,-0.352717 -0.217921,-0.217917 -0.352717,-0.518976 -0.352717,-0.851496 0,-0.332512 0.134791,-0.633571 0.352717,-0.851492 0.217921,-0.217925 0.518976,-0.352717 0.851496,-0.352717zm-0.550043 1.10349l0.279252 0c0.00592126,-0.0562795 0.0165669,-0.10711 0.0321299,-0.152583 0.0250315,-0.0738976 0.0595984,-0.134693 0.103701,-0.181976 0.0437126,-0.0472795 0.0953622,-0.0826457 0.154563,-0.105291 0.0596063,-0.0230433 0.123575,-0.0345669 0.192709,-0.0345669 0.033374,0 0.0659606,0.00317717 0.0973425,0.00953543 0.0313898,0.00596063 0.0603976,0.0143071 0.086622,0.0242362 0.0262244,0.00993307 0.050063,0.0218543 0.0703268,0.0349646 0.0206575,0.0131181 0.0357598,0.0242402 0.0448976,0.0337756 0.00953543,0.0091378 0.0158937,0.016685 0.0190709,0.022248 0.0035748,0.00516929 0.00675197,0.0115236 0.00874016,0.0190709 0.00238583,0.00755512 0.00397244,0.0154961 0.00477165,0.0250315 0.000795276,0.00914567 0.00118898,0.021063 0.00118898,0.0349646 0,0.0302047 -0.0035748,0.0512598 -0.0103268,0.0631811 -0.00715748,0.012315 -0.0154961,0.0182756 -0.0258307,0.0182756 -0.0115197,0 -0.0250315,-0.00635433 -0.040126,-0.0190709 -0.0150984,-0.0131102 -0.0341693,-0.0270197 -0.0576142,-0.0425157 -0.0230433,-0.0154961 -0.0512598,-0.0297953 -0.0842362,-0.0425157 -0.0329803,-0.0131102 -0.0719134,-0.0194685 -0.117213,-0.0194685 -0.0921772,0 -0.162906,0.0357638 -0.212173,0.106484 -0.0358976,0.051815 -0.0587087,0.120508 -0.0684528,0.20622l0.465421 0 0 0.168748 -0.468677 0c0.00285039,0.0408976 0.00847638,0.0781496 0.016878,0.11176 0.0127165,0.0508622 0.0317874,0.093378 0.0564213,0.127543 0.0250315,0.0341693 0.0552244,0.0595984 0.0913858,0.0762913 0.0361575,0.016685 0.0774803,0.0250315 0.123969,0.0250315 0.0441024,0 0.0830433,-0.00715748 0.116413,-0.0210591 0.033378,-0.0139055 0.0623819,-0.0294016 0.0866181,-0.0460945 0.0246378,-0.016685 0.0452992,-0.0317835 0.0619843,-0.0452913 0.016689,-0.0135079 0.0294016,-0.0202677 0.038937,-0.0202677 0.00516535,0 0.00993701,0.00159449 0.0139094,0.00437402 0.00397244,0.00317717 0.00714961,0.00834646 0.00993307,0.0158937 0.00277953,0.00754724 0.00437402,0.016685 0.00556299,0.027811 0.00118898,0.0115197 0.00198425,0.0246378 0.00198425,0.0401339 0,0.0135079 -0.000397638,0.0246339 -0.00118898,0.0345669 -0.000795276,0.00953543 -0.00238583,0.0178819 -0.00397244,0.0242323 -0.00198819,0.00675984 -0.00437402,0.0127205 -0.00715748,0.0174843 -0.00277559,0.00516929 -0.00873622,0.0127165 -0.0186693,0.022252 -0.00953543,0.00953543 -0.0262244,0.0218504 -0.0492756,0.0361575 -0.023437,0.0143071 -0.0496614,0.0270197 -0.0786693,0.0381417 -0.0290039,0.0115236 -0.0607874,0.0206654 -0.0949606,0.0274173 -0.0341693,0.00714961 -0.0695315,0.0107244 -0.106087,0.0107244 -0.0750945,0 -0.141843,-0.0127126 -0.199854,-0.0373465 -0.0584094,-0.0250315 -0.106882,-0.0611929 -0.14622,-0.10887 -0.0393307,-0.0476772 -0.0691339,-0.106484 -0.0897953,-0.175618 -0.0160591,-0.0550866 -0.025874,-0.116909 -0.0292559,-0.185268l-0.274976 0 0 -0.168748z"/>
  <path class="fil2" d="M3.6518 1.36758c0.097937,-0.0498425 0.201185,-0.0891024 0.307913,-0.117291 0.105878,-0.0279685 0.215083,-0.0447283 0.325791,-0.0497953 0.428339,-0.0196102 0.824035,0.136213 1.11751,0.403988 0.293602,0.267894 0.485024,0.647961 0.50465,1.07667 0.00926772,0.2025 -0.0211614,0.402622 -0.0875551,0.589799 -0.0665866,0.187717 -0.169122,0.362531 -0.303835,0.513819l-0.159165 -0.141669c0.116378,-0.130701 0.20485,-0.281406 0.262165,-0.442984 0.0575079,-0.162126 0.0838819,-0.335114 0.0758858,-0.509799 -0.0169134,-0.369421 -0.182094,-0.697142 -0.435476,-0.928335 -0.253508,-0.231311 -0.59522,-0.365917 -0.965016,-0.348988 -0.0947795,0.00433858 -0.188906,0.0188543 -0.280791,0.043126 -0.0910276,0.0240433 -0.180024,0.0580039 -0.265409,0.101457l-0.0966693 -0.19z"/>
  <polygon class="fil2" points="4.14833,1.95429 3.53414,1.5716 3.45406,1.5217 3.49414,1.43619 3.81299,0.755909 "/>
  <path class="fil2" d="M3.17487 5.45908c-0.097937,0.0498425 -0.201185,0.0891024 -0.307913,0.117291 -0.105878,0.0279685 -0.215083,0.0447283 -0.325791,0.0497953 -0.428339,0.0196102 -0.824035,-0.136213 -1.11751,-0.403988 -0.293602,-0.267894 -0.485024,-0.647961 -0.50465,-1.07667 -0.00926772,-0.2025 0.0211614,-0.402622 0.0875551,-0.589799 0.0665866,-0.187717 0.169122,-0.362531 0.303835,-0.513819l0.159165 0.141669c-0.116378,0.130701 -0.20485,0.281406 -0.262165,0.442984 -0.0575079,0.162126 -0.0838819,0.335114 -0.0758858,0.509799 0.0169134,0.369421 0.182094,0.697142 0.435476,0.928335 0.253508,0.231311 0.59522,0.365917 0.965016,0.348988 0.0947795,-0.00433858 0.188906,-0.0188543 0.280791,-0.043126 0.0910276,-0.0240433 0.180024,-0.0580039 0.265409,-0.101457l0.0966693 0.19z"/>
  <polygon class="fil2" points="2.67833,4.87237 3.29252,5.25506 3.3726,5.30496 3.33252,5.39048 3.01367,6.07075 "/>
 </g>
</svg>
